<?xml version="1.0"?>
<svg xmlns="http://www.w3.org/2000/svg" id="Capa_1" enable-background="new 0 0 511.5 511.5" height="512px" viewBox="0 0 511.5 511.5" width="512px"><g><g><path d="m422.874 136.992 14.701-2.984c-7.573-37.307-27.995-71.285-57.504-95.675-29.906-24.72-67.781-38.333-106.646-38.333v15c34.378 0 67.9 11.699 94.746 33h-113.852l-60.894 60.894-71.5-71.5v74.106h15v-37.894l93.569 93.569c-1.644 2.702-2.886 5.672-3.659 8.825h-89.909v-48.5h-15v59.106l60.894 60.894-54.397 54.397c-1.571-1.732-3.108-3.499-4.603-5.307-22.502-27.224-34.894-61.705-34.894-97.09h-15c0 38.865 13.613 76.74 38.332 106.646 24.39 29.509 58.368 49.93 95.676 57.503l2.984-14.7c-23.477-4.766-45.506-15.128-64.208-29.949h103.216v192.5h15v-196.894l45.804-45.803-10.607-10.606-35.196 35.197v-79.303c3.152-.773 6.122-2.015 8.824-3.659l119.176 119.175v-149.213l-60.895-60.894 54.389-54.389c18.305 20.22 31.019 45.109 36.453 71.881zm-218.842-17.492 45.894-45.894v79.303c-3.152.773-6.123 2.015-8.825 3.659zm-56.5 71.5h79.303c.773 3.152 2.015 6.123 3.659 8.825l-37.069 37.069zm102.393 113h-102.393l93.569-93.569c2.702 1.644 5.672 2.886 8.825 3.659v89.91zm7.5-104c-9.098 0-16.5-7.402-16.5-16.5s7.402-16.5 16.5-16.5 16.5 7.402 16.5 16.5-7.402 16.5-16.5 16.5zm120.5 93.394-93.569-93.569c1.644-2.702 2.886-5.672 3.659-8.824h89.909v102.393zm-10.606-117.394h-79.303c-.773-3.152-2.015-6.122-3.659-8.824l37.069-37.069zm-93.569-19.431c-2.702-1.644-5.672-2.886-8.824-3.659v-89.91h102.393z" data-original="#000000" class="active-path" data-old_color="#000000" fill="#FFFFFF"/><path d="m353.425 240h16v15h-16z" data-original="#000000" class="active-path" data-old_color="#000000" fill="#FFFFFF"/><path d="m337.425 224h16v15h-16z" data-original="#000000" class="active-path" data-old_color="#000000" fill="#FFFFFF"/></g></g> </svg>
