<?xml version="1.0"?>
<svg xmlns="http://www.w3.org/2000/svg" xmlns:xlink="http://www.w3.org/1999/xlink" version="1.1" id="Capa_1" x="0px" y="0px" viewBox="0 0 295.82 295.82" style="enable-background:new 0 0 295.82 295.82;" xml:space="preserve" width="512px" height="512px"><g><g>
	<g>
		<path d="M158.119,137.51l-4.868-65.426c-1.093-14.691-2.295-17.177-5.341-17.177s-4.248,2.486-5.341,17.177    l-4.868,65.426c-3.916,3.051-6.478,7.762-6.478,13.114c0,6.244,3.47,11.618,8.545,14.479l2.567,28.441    c1.213,13.375,2.698,15.637,5.575,15.637s4.368-2.257,5.575-15.637l2.567-28.441c5.075-2.861,8.545-8.24,8.545-14.479    C164.597,145.277,162.035,140.567,158.119,137.51z M147.91,73.601l4.536,61.043c-1.452-0.413-2.953-0.702-4.536-0.702    s-3.084,0.294-4.536,0.702L147.91,73.601z M148.068,193.06c-0.054,0.587-0.109,1.142-0.158,1.675    c-0.054-0.533-0.109-1.088-0.158-1.675l-2.35-25.999c0.821,0.125,1.648,0.25,2.507,0.25s1.681-0.125,2.507-0.25L148.068,193.06z" data-original="#010002" class="active-path" data-old_color="#010002" fill="#FFFFFF"/>
		<path d="M147.91,33.836c-62.897,0-114.079,51.176-114.079,114.073S85.007,261.983,147.91,261.983    s114.079-51.176,114.079-114.073S210.807,33.836,147.91,33.836z M147.91,251.105c-56.903,0-103.201-46.292-103.201-103.195    S91.006,44.715,147.91,44.715S251.111,91.006,251.111,147.91S204.813,251.105,147.91,251.105z" data-original="#010002" class="active-path" data-old_color="#010002" fill="#FFFFFF"/>
		<path d="M147.91,0C66.351,0,0,66.351,0,147.91s66.351,147.91,147.91,147.91s147.91-66.351,147.91-147.91    S229.469,0,147.91,0z M147.91,284.942c-75.565,0-137.032-61.472-137.032-137.032S72.345,10.878,147.91,10.878    S284.942,72.35,284.942,147.91S223.469,284.942,147.91,284.942z" data-original="#010002" class="active-path" data-old_color="#010002" fill="#FFFFFF"/>
		<path d="M93.873,95.983l2.997-2.997c2.127-2.127,1.556-4.667-1.273-5.684l-7.125-2.556    c-2.823-1.017-4.226,0.43-3.122,3.22l2.681,6.799C89.135,97.56,91.746,98.104,93.873,95.983z" data-original="#010002" class="active-path" data-old_color="#010002" fill="#FFFFFF"/>
		<path d="M200.609,95.983c2.127,2.127,4.737,1.583,5.842-1.213l2.687-6.799    c1.104-2.796-0.299-4.237-3.122-3.22l-7.131,2.556c-2.823,1.017-3.399,3.557-1.273,5.684L200.609,95.983z" data-original="#010002" class="active-path" data-old_color="#010002" fill="#FFFFFF"/>
		<path d="M94.542,199.663c-2.127-2.127-4.737-1.577-5.842,1.213l-2.681,6.799    c-1.104,2.796,0.299,4.237,3.122,3.22l7.12-2.556c2.828-1.012,3.399-3.557,1.273-5.684L94.542,199.663z" data-original="#010002" class="active-path" data-old_color="#010002" fill="#FFFFFF"/>
		<path d="M207.114,200.876c-1.104-2.796-3.72-3.34-5.842-1.213l-2.991,2.991    c-2.127,2.127-1.55,4.667,1.273,5.684l7.12,2.556c2.828,1.012,4.226-0.43,3.122-3.22L207.114,200.876z" data-original="#010002" class="active-path" data-old_color="#010002" fill="#FFFFFF"/>
	</g>
</g></g> </svg>
